<svg xmlns="http://www.w3.org/2000/svg" width="200.047" height="98.714" viewBox="0 0 200.047 98.714">
  <g id="Grupo_7" data-name="Grupo 7" transform="translate(0 0)">
    <g id="Grupo_3" data-name="Grupo 3" transform="translate(0 0)">
      <path id="Caminho_9" data-name="Caminho 9" d="M52.342,72.817c-3.339,0-4.981,3.277-4.981,9.812,0,6.071,1.4,8.964,4.761,8.964,3.021,0,4.521-2.409,4.6-7.275h-3.1v.256c0,2.646-.379,3.919-1.3,3.919-1.2,0-1.38-1.8-1.38-5.636,0-5.015.16-7.315,1.361-7.315.839,0,1.039,1.046,1.039,3.2v.84h3.44v-.405c0-4.176-1.56-6.357-4.441-6.357" transform="translate(4.632 7.121)" fill="#f1f1f1"/>
      <path id="Caminho_10" data-name="Caminho 10" d="M58.8,73.149,56.237,91.224h2.84l.48-3.86h2.581l.5,3.86h3.141l-2.34-18.075Zm1.08,11.244.961-8.016.94,8.016Z" transform="translate(5.5 7.154)" fill="#f1f1f1"/>
      <path id="Caminho_11" data-name="Caminho 11" d="M72.1,83.011a18.515,18.515,0,0,0-.92-3.515L69,73.15H65.8V91.224h2.821V80.572a26.159,26.159,0,0,0,1.1,3.663l2.48,6.989h2.721V73.15H72.1Z" transform="translate(6.435 7.154)" fill="#f1f1f1"/>
      <path id="Caminho_12" data-name="Caminho 12" d="M77.584,73.149,75.023,91.224h2.84l.46-3.86H80.9l.521,3.86h3.12L82.225,73.149Zm1.079,11.244.94-8.016.942,8.016Z" transform="translate(7.337 7.154)" fill="#f1f1f1"/>
      <path id="Caminho_13" data-name="Caminho 13" d="M88.071,73.15H84.59V91.225h7.821V88.252h-4.34Z" transform="translate(8.273 7.154)" fill="#f1f1f1"/>
      <path id="Caminho_14" data-name="Caminho 14" d="M101.173,80.425H99.132V73.15h-3.5V91.225h3.5V83.4h2.041v7.828h3.481V73.15h-3.481Z" transform="translate(9.352 7.154)" fill="#f1f1f1"/>
      <path id="Caminho_23" data-name="Caminho 23" d="M98.7,1.559l-45.631,28.2L27.487,0l2.881,42.259L0,57.421l31.168,5.666,5.061,35.626,16.1-28.222,39.629,4.857-24.5-26.771Z" transform="translate(0 0)" fill="#00a7e1"/>
      <path id="Caminho_24" data-name="Caminho 24" d="M31.872,46.075l2.781,6.714-1.9.789-2.78-6.723-3.221,1.333,6.922,16.7,3.221-1.333-3-7.237,1.881-.789,3,7.245,3.221-1.332-6.922-16.7Z" transform="translate(2.616 4.376)" fill="#eee"/>
      <path id="Caminho_25" data-name="Caminho 25" d="M46.055,40.371l2.021,7.454c.179.64.56,1.815,1.18,3.5-.781-1.648-1.482-2.743-1.861-3.415l-3.861-6.5-2.962,1.224,1.881,7.315A33.426,33.426,0,0,0,43.534,53.7c-.521-1.115-1.06-2.221-1.661-3.307l-3.581-6.8L35.351,44.8l8.844,15.913,2.939-1.224-2.04-8.164a28.022,28.022,0,0,0-1.28-4.373c.6,1.3,1.28,2.656,2.08,4.038l4.2,7.275,2.92-1.214-4.581-17.67Z" transform="translate(3.457 3.852)" fill="#eee"/>
      <path id="Caminho_26" data-name="Caminho 26" d="M60.474,43.881c-2.441-5.863-4.623-7.868-8.643-6.2l-3.54,1.472,6.9,16.7,3.561-1.471c4.041-1.679,4.162-4.61,1.721-10.5m-2.841,7.748a1.924,1.924,0,0,1-.36.12L52.651,40.583l.2-.088a1.815,1.815,0,0,1,1.82.078c.58.425,1.34,2.133,2.581,5.094,1.5,3.613,2.04,5.272.38,5.962" transform="translate(4.723 3.63)" fill="#eee"/>
      <path id="Caminho_27" data-name="Caminho 27" d="M110.351,72.844c-3.7,0-5.061,3-5.061,9.377s1.379,9.367,5.081,9.367c3.561,0,4.92-3.05,4.92-9.367s-1.4-9.377-4.94-9.377m0,15.725c-1.26,0-1.4-1.926-1.4-6.219,0-4.511.08-6.585,1.361-6.585,1.2,0,1.321,2.232,1.321,7.087,0,3.841-.24,5.716-1.281,5.716" transform="translate(10.297 7.124)" fill="#f1f1f1"/>
      <path id="Caminho_28" data-name="Caminho 28" d="M119.32,73.15h-3.48V91.225h7.842V88.252H119.32Z" transform="translate(11.329 7.154)" fill="#f1f1f1"/>
      <path id="Caminho_29" data-name="Caminho 29" d="M127.139,73.15h-3.482V91.225h7.824V88.252h-4.342Z" transform="translate(12.093 7.154)" fill="#f1f1f1"/>
      <path id="Caminho_30" data-name="Caminho 30" d="M135.365,79.93l-1.72-6.781h-3.481l3,10.779v7.3h3.5v-7.3l3.561-10.779H137.4Z" transform="translate(12.729 7.154)" fill="#f1f1f1"/>
      <path id="Caminho_31" data-name="Caminho 31" d="M149.967,80.809c-.06.662-.179,1.9-.239,3.682a36.577,36.577,0,0,0-.42-3.87l-1.08-7.473h-3.2l-1.06,7.473a33.107,33.107,0,0,0-.441,3.87c-.058-1.224-.139-2.458-.26-3.682l-.72-7.66h-3.18l2.08,18.075h3.2l1.241-8.321a28.887,28.887,0,0,0,.48-4.532c.04,1.432.18,2.941.38,4.532l1.1,8.321h3.161l2.521-18.075h-2.581Z" transform="translate(13.629 7.154)" fill="#f1f1f1"/>
      <path id="Caminho_32" data-name="Caminho 32" d="M157.912,72.844c-3.7,0-5.061,3-5.061,9.377s1.4,9.367,5.081,9.367c3.561,0,4.923-3.05,4.923-9.367s-1.381-9.377-4.942-9.377m0,15.725c-1.26,0-1.4-1.926-1.4-6.219,0-4.511.079-6.585,1.359-6.585,1.2,0,1.321,2.232,1.321,7.087,0,3.841-.239,5.716-1.28,5.716" transform="translate(14.948 7.124)" fill="#f1f1f1"/>
      <path id="Caminho_33" data-name="Caminho 33" d="M168.114,72.844c-3.681,0-5.041,3-5.041,9.377s1.38,9.367,5.082,9.367c3.54,0,4.9-3.05,4.9-9.367s-1.379-9.377-4.94-9.377m0,15.725c-1.24,0-1.381-1.926-1.381-6.219,0-4.511.081-6.585,1.361-6.585,1.2,0,1.3,2.232,1.3,7.087,0,3.841-.221,5.716-1.281,5.716" transform="translate(15.948 7.124)" fill="#f1f1f1"/>
      <path id="Caminho_34" data-name="Caminho 34" d="M177.465,73.15h-3.841V91.225h3.841c4.381,0,5.6-2.657,5.6-9.034,0-6.357-1.26-9.041-5.6-9.041m.02,15.1a2.57,2.57,0,0,1-.379-.02V76.14h.22a1.774,1.774,0,0,1,1.641.771c.38.613.439,2.487.439,5.685,0,3.918-.12,5.656-1.921,5.656" transform="translate(16.98 7.154)" fill="#f1f1f1"/>
    </g>
  </g>
</svg>
